<!--?xml version="1.0" standalone="no"?-->
              <svg id="sw-js-blob-svg" viewBox="0 0 100 100" xmlns="http://www.w3.org/2000/svg" version="1.1">
                    <defs> 
                        <linearGradient id="sw-gradient" x1="0" x2="1" y1="1" y2="0">
                            <stop id="stop1" stop-color="rgba(140.771, 153.358, 167.273, 1)" offset="0%"></stop>
                            <stop id="stop2" stop-color="rgba(108.065, 152.964, 255, 1)" offset="100%"></stop>
                        </linearGradient>
                    </defs>
                <path fill="url(#sw-gradient)" d="M20.4,-34.2C27.3,-31.4,34.2,-27.6,37.2,-21.7C40.2,-15.8,39.2,-7.9,37.9,-0.8C36.6,6.4,35,12.8,32.1,18.9C29.2,25,25.2,30.8,19.6,35.1C14.1,39.5,7,42.4,0,42.3C-7,42.3,-13.9,39.2,-20.6,35.5C-27.2,31.8,-33.5,27.4,-36.4,21.4C-39.3,15.3,-38.7,7.7,-39.2,-0.3C-39.7,-8.3,-41.3,-16.5,-38.8,-23.1C-36.2,-29.7,-29.6,-34.7,-22.4,-37.3C-15.3,-39.9,-7.6,-40.1,-0.4,-39.3C6.8,-38.6,13.6,-36.9,20.4,-34.2Z" width="100%" height="100%" transform="translate(50 50)" stroke-width="0" style="transition: all 0.3s ease 0s;" stroke="url(#sw-gradient)"></path>
              </svg>